<svg width="146" height="19" viewBox="0 0 146 19" fill="none" xmlns="http://www.w3.org/2000/svg">
<path d="M0.0891876 10.356C0.0891876 7.288 2.16919 5.312 4.92519 5.312C6.77119 5.312 8.25319 6.222 9.05919 7.652C9.89119 6.196 11.2692 5.312 13.1152 5.312C15.8712 5.312 17.9252 7.314 17.9252 10.356V18H16.1832V10.434C16.1832 8.432 15.0132 6.976 13.0372 6.976C11.0612 6.976 9.89119 8.432 9.89119 10.434V18H8.14919V10.434C8.14919 8.432 6.95319 6.976 5.00319 6.976C3.00119 6.976 1.83119 8.432 1.83119 10.434V18H0.0891876V10.356ZM26.6417 18C22.4037 18 19.8817 15.088 19.8817 11.578C19.8817 7.886 22.6377 5.312 26.1477 5.312C29.7877 5.312 32.3877 7.782 32.3877 11.942V18H30.6457V11.994C30.6457 8.77 28.7477 7.002 26.1477 7.002C23.7297 7.002 21.6757 8.744 21.6757 11.552C21.6757 14.048 23.2877 16.336 26.7717 16.336H28.6437L28.0457 18H26.6417ZM34.8248 9.68C34.8248 7.184 36.2808 5.598 38.6468 5.598H40.4408V7.262H38.8288C37.5808 7.262 36.5668 7.938 36.5668 9.758V18H34.8248V9.68ZM42.9215 3.57C42.2195 3.57 41.6995 3.076 41.6995 2.348C41.6995 1.672 42.2195 1.178 42.9215 1.178C43.5975 1.178 44.1435 1.672 44.1435 2.348C44.1435 3.076 43.6235 3.57 42.9215 3.57ZM42.0375 18V5.598H43.7795V18H42.0375ZM46.3249 11.058C46.3249 7.6 48.5089 5.312 51.7329 5.312C54.9049 5.312 57.1149 7.6 57.1149 11.058V18H55.3729V11.058C55.3729 8.614 53.8909 7.002 51.7329 7.002C49.5229 7.002 48.0669 8.614 48.0669 11.058V18H46.3249V11.058ZM65.7686 18C61.5306 18 59.0086 15.088 59.0086 11.578C59.0086 7.886 61.7646 5.312 65.2746 5.312C68.9146 5.312 71.5146 7.782 71.5146 11.942V18H69.7726V11.994C69.7726 8.77 67.8746 7.002 65.2746 7.002C62.8566 7.002 60.8026 8.744 60.8026 11.552C60.8026 14.048 62.4146 16.336 65.8986 16.336H67.7706L67.1726 18H65.7686ZM84.1437 0.397999H85.8857V11.656C85.8857 15.816 83.2857 18.286 79.6457 18.286C76.1357 18.286 73.3797 15.712 73.3797 12.02C73.3797 8.51 75.9017 5.598 80.1397 5.598H81.5437L82.1417 7.262H80.2697C76.7857 7.262 75.1737 9.55 75.1737 12.046C75.1737 14.854 77.2277 16.596 79.6457 16.596C82.2457 16.596 84.1437 14.828 84.1437 11.604V0.397999ZM94.4854 18C90.2474 18 87.7254 15.088 87.7254 11.578C87.7254 7.886 90.4814 5.312 93.9914 5.312C97.6314 5.312 100.231 7.782 100.231 11.942V18H98.4894V11.994C98.4894 8.77 96.5914 7.002 93.9914 7.002C91.5734 7.002 89.5194 8.744 89.5194 11.552C89.5194 14.048 91.1314 16.336 94.6154 16.336H96.4874L95.8894 18H94.4854ZM102.747 18V0.397999H104.489V18H102.747ZM107.007 0.397999H108.749V11.604C108.749 14.828 110.647 16.596 113.247 16.596C115.665 16.596 117.719 14.854 117.719 12.046C117.719 9.55 116.107 7.262 112.623 7.262H110.751L111.349 5.598H112.753C116.991 5.598 119.513 8.51 119.513 12.02C119.513 15.712 116.757 18.286 113.247 18.286C109.607 18.286 107.007 15.816 107.007 11.656V0.397999ZM127.385 18.286C123.485 18.286 120.911 15.4 120.911 11.812C120.911 8.25 123.485 5.312 127.385 5.312C131.259 5.312 133.859 8.25 133.859 11.812C133.859 15.4 131.259 18.286 127.385 18.286ZM122.705 11.786C122.705 14.36 124.499 16.57 127.385 16.57C130.245 16.57 132.065 14.36 132.065 11.786C132.065 9.212 130.245 7.002 127.385 7.002C124.499 7.002 122.705 9.212 122.705 11.786ZM135.829 9.68C135.829 7.184 137.285 5.598 139.651 5.598H141.445V7.262H139.833C138.585 7.262 137.571 7.938 137.571 9.758V18H135.829V9.68ZM143.925 3.57C143.223 3.57 142.703 3.076 142.703 2.348C142.703 1.672 143.223 1.178 143.925 1.178C144.601 1.178 145.147 1.672 145.147 2.348C145.147 3.076 144.627 3.57 143.925 3.57ZM143.041 18V5.598H144.783V18H143.041Z" fill="black"/>
</svg>
