<svg width="313" height="39" viewBox="0 0 313 39" fill="none" xmlns="http://www.w3.org/2000/svg">
<path d="M0.53825 21.536C0.53825 14.928 5.01825 10.672 10.9543 10.672C14.9303 10.672 18.1223 12.632 19.8583 15.712C21.6503 12.576 24.6183 10.672 28.5943 10.672C34.5303 10.672 38.9543 14.984 38.9543 21.536V38H35.2023V21.704C35.2023 17.392 32.6823 14.256 28.4263 14.256C24.1703 14.256 21.6503 17.392 21.6503 21.704V38H17.8983V21.704C17.8983 17.392 15.3223 14.256 11.1223 14.256C6.81025 14.256 4.29025 17.392 4.29025 21.704V38H0.53825V21.536ZM57.7283 38C48.6003 38 43.1683 31.728 43.1683 24.168C43.1683 16.216 49.1043 10.672 56.6643 10.672C64.5043 10.672 70.1043 15.992 70.1043 24.952V38H66.3523V25.064C66.3523 18.12 62.2643 14.312 56.6643 14.312C51.4563 14.312 47.0323 18.064 47.0323 24.112C47.0323 29.488 50.5043 34.416 58.0083 34.416H62.0403L60.7523 38H57.7283ZM75.3534 20.08C75.3534 14.704 78.4894 11.288 83.5854 11.288H87.4494V14.872H83.9774C81.2894 14.872 79.1054 16.328 79.1054 20.248V38H75.3534V20.08ZM92.7926 6.92C91.2806 6.92 90.1606 5.856 90.1606 4.288C90.1606 2.832 91.2806 1.768 92.7926 1.768C94.2486 1.768 95.4246 2.832 95.4246 4.288C95.4246 5.856 94.3046 6.92 92.7926 6.92ZM90.8886 38V11.288H94.6406V38H90.8886ZM100.123 23.048C100.123 15.6 104.827 10.672 111.771 10.672C118.603 10.672 123.363 15.6 123.363 23.048V38H119.611V23.048C119.611 17.784 116.419 14.312 111.771 14.312C107.011 14.312 103.875 17.784 103.875 23.048V38H100.123V23.048ZM142.002 38C132.874 38 127.442 31.728 127.442 24.168C127.442 16.216 133.378 10.672 140.938 10.672C148.778 10.672 154.378 15.992 154.378 24.952V38H150.626V25.064C150.626 18.12 146.538 14.312 140.938 14.312C135.73 14.312 131.306 18.064 131.306 24.112C131.306 29.488 134.778 34.416 142.282 34.416H146.314L145.026 38H142.002ZM181.579 0.0879974H185.331V24.336C185.331 33.296 179.731 38.616 171.891 38.616C164.331 38.616 158.395 33.072 158.395 25.12C158.395 17.56 163.827 11.288 172.955 11.288H175.979L177.267 14.872H173.235C165.731 14.872 162.259 19.8 162.259 25.176C162.259 31.224 166.683 34.976 171.891 34.976C177.491 34.976 181.579 31.168 181.579 24.224V0.0879974ZM203.853 38C194.725 38 189.293 31.728 189.293 24.168C189.293 16.216 195.229 10.672 202.789 10.672C210.629 10.672 216.229 15.992 216.229 24.952V38H212.477V25.064C212.477 18.12 208.389 14.312 202.789 14.312C197.581 14.312 193.157 18.064 193.157 24.112C193.157 29.488 196.629 34.416 204.133 34.416H208.165L206.877 38H203.853ZM221.646 38V0.0879974H225.398V38H221.646ZM230.823 0.0879974H234.575V24.224C234.575 31.168 238.663 34.976 244.263 34.976C249.471 34.976 253.895 31.224 253.895 25.176C253.895 19.8 250.423 14.872 242.919 14.872H238.887L240.175 11.288H243.199C252.327 11.288 257.759 17.56 257.759 25.12C257.759 33.072 251.823 38.616 244.263 38.616C236.423 38.616 230.823 33.296 230.823 24.336V0.0879974ZM274.714 38.616C266.314 38.616 260.77 32.4 260.77 24.672C260.77 17 266.314 10.672 274.714 10.672C283.058 10.672 288.658 17 288.658 24.672C288.658 32.4 283.058 38.616 274.714 38.616ZM264.634 24.616C264.634 30.16 268.498 34.92 274.714 34.92C280.874 34.92 284.794 30.16 284.794 24.616C284.794 19.072 280.874 14.312 274.714 14.312C268.498 14.312 264.634 19.072 264.634 24.616ZM292.9 20.08C292.9 14.704 296.036 11.288 301.132 11.288H304.996V14.872H301.524C298.836 14.872 296.652 16.328 296.652 20.248V38H292.9V20.08ZM310.339 6.92C308.827 6.92 307.707 5.856 307.707 4.288C307.707 2.832 308.827 1.768 310.339 1.768C311.795 1.768 312.971 2.832 312.971 4.288C312.971 5.856 311.851 6.92 310.339 6.92ZM308.435 38V11.288H312.187V38H308.435Z" fill="white"/>
</svg>
